<?xml version="1.0" standalone="no"?>
<!DOCTYPE svg PUBLIC "-//W3C//DTD SVG 20010904//EN"
 "http://www.w3.org/TR/2001/REC-SVG-20010904/DTD/svg10.dtd">
<svg version="1.0" xmlns="http://www.w3.org/2000/svg"
 width="300.000000pt" height="300.000000pt" viewBox="0 0 300.000000 300.000000"
 preserveAspectRatio="xMidYMid meet">
<metadata>
Created by potrace 1.10, written by Peter Selinger 2001-2011
</metadata>
<g transform="translate(0.000000,300.000000) scale(0.100000,-0.100000)"
fill="#000000" stroke="none">
<path d="M1340 2870 c0 -5 -9 -10 -21 -10 -22 0 -49 -22 -49 -39 0 -6 -5 -11
-10 -11 -14 0 -60 -46 -60 -60 0 -5 -11 -10 -25 -10 -14 0 -25 -4 -25 -10 0
-5 -11 -10 -25 -10 -16 0 -25 -6 -25 -15 0 -9 9 -15 25 -15 16 0 25 6 25 15 0
9 9 15 25 15 14 0 25 -4 25 -10 0 -5 -7 -10 -15 -10 -10 0 -15 -11 -15 -35 0
-19 -4 -35 -10 -35 -5 0 -10 -22 -10 -50 0 -38 -4 -50 -15 -50 -13 0 -15 -7
-9 -35 4 -24 2 -35 -6 -35 -14 0 -40 -25 -40 -39 0 -6 -5 -11 -11 -11 -17 0
-39 -27 -39 -49 0 -12 -4 -21 -10 -21 -5 0 -10 -9 -10 -20 0 -11 -7 -20 -15
-20 -10 0 -15 -11 -15 -35 0 -19 -4 -35 -10 -35 -5 0 -10 -16 -10 -35 0 -19
-4 -35 -10 -35 -5 0 -10 -22 -10 -50 0 -38 -4 -50 -15 -50 -11 0 -15 -12 -15
-45 0 -25 -4 -45 -10 -45 -5 0 -10 -22 -10 -50 0 -27 -4 -50 -10 -50 -6 0 -10
-33 -10 -80 0 -47 4 -80 10 -80 6 0 10 -53 10 -140 0 -87 4 -140 10 -140 6 0
10 -11 10 -25 0 -16 6 -25 15 -25 8 0 15 7 15 15 0 8 5 15 10 15 6 0 10 20 10
45 0 34 4 45 16 45 8 0 12 5 9 10 -4 6 10 10 35 10 25 0 39 -4 35 -10 -3 -5 1
-10 9 -10 13 0 16 -13 16 -70 0 -40 4 -70 10 -70 6 0 10 -6 10 -14 0 -10 7
-13 20 -11 12 2 23 -2 27 -10 7 -21 73 -20 73 0 0 11 7 14 25 9 19 -5 25 -2
25 10 0 9 5 16 10 16 6 0 10 30 10 69 0 46 4 71 13 75 10 5 10 7 0 12 -7 3
-13 12 -13 20 0 8 -7 14 -16 14 -8 0 -12 5 -9 10 3 6 -1 10 -9 10 -9 0 -16 5
-16 10 0 6 -12 10 -26 10 -40 0 -23 25 19 28 20 2 37 7 37 13 0 5 5 9 10 9 6
0 10 -11 10 -25 0 -14 5 -25 10 -25 6 0 10 -9 10 -20 0 -11 7 -20 15 -20 8 0
15 -7 15 -15 0 -8 5 -15 10 -15 6 0 10 5 10 11 0 11 25 39 35 39 8 0 35 -27
35 -35 0 -10 28 -35 39 -35 6 0 11 -6 11 -14 0 -9 7 -12 20 -9 14 4 20 0 20
-11 0 -13 11 -16 50 -16 38 0 50 4 50 15 0 8 -7 15 -16 15 -8 0 -12 5 -9 10 3
6 -1 10 -9 10 -10 0 -16 9 -16 25 0 14 5 25 10 25 6 0 10 16 10 35 0 19 -4 35
-10 35 -6 0 -10 65 -10 175 0 110 -4 175 -10 175 -6 0 -10 -85 -10 -235 0
-150 4 -235 10 -235 6 0 10 -4 10 -10 0 -5 -9 -10 -20 -10 -11 0 -20 5 -20 10
0 6 -11 10 -25 10 -14 0 -25 5 -25 11 0 14 -25 39 -39 39 -6 0 -11 5 -11 11 0
14 -26 40 -34 32 -3 -3 -8 2 -12 11 -10 26 -24 18 -24 -14 0 -41 -11 -37 -34
10 -11 22 -23 40 -28 40 -4 0 -8 16 -8 35 0 19 -4 35 -10 35 -5 0 -10 15 -10
34 0 21 -6 36 -15 40 -12 4 -15 24 -15 86 0 47 -4 80 -10 80 -5 0 -10 20 -10
45 0 25 5 45 10 45 6 0 10 20 10 45 l0 45 50 0 c38 0 50 4 50 15 0 8 -5 15
-10 15 -14 0 -60 46 -60 60 0 5 -7 10 -15 10 -12 0 -15 18 -15 100 0 80 3 102
15 106 10 4 15 20 15 50 0 24 5 44 10 44 6 0 10 20 10 45 0 25 5 45 10 45 6 0
10 11 10 25 0 16 6 25 15 25 9 0 15 9 15 25 0 14 5 25 10 25 6 0 10 9 10 20 0
16 7 20 35 20 28 0 35 -4 35 -20 0 -11 5 -20 10 -20 6 0 10 -6 10 -13 0 -9 28
-13 110 -13 86 -1 110 2 110 13 0 9 -16 13 -60 13 -97 0 -69 19 33 22 119 4
114 23 -6 23 -63 0 -87 3 -87 13 0 6 -7 12 -15 12 -9 0 -15 9 -15 21 0 26 -23
49 -49 49 -12 0 -21 5 -21 10 0 6 -25 10 -55 10 -30 0 -55 -4 -55 -10z m110
-25 c0 -9 9 -15 25 -15 18 0 25 -5 25 -20 0 -11 4 -20 9 -20 5 0 11 -16 13
-35 4 -35 4 -35 -34 -35 -34 0 -38 3 -38 25 0 14 -4 25 -10 25 -5 0 -10 9 -10
20 0 11 -4 20 -10 20 -5 0 -10 7 -10 15 0 8 -7 15 -15 15 -8 0 -15 -7 -15 -15
0 -8 -4 -15 -10 -15 -5 0 -10 -9 -10 -20 0 -11 -4 -20 -10 -20 -5 0 -10 -11
-10 -25 0 -16 -6 -25 -15 -25 -9 0 -15 -9 -15 -25 0 -14 -4 -25 -10 -25 -5 0
-10 -9 -10 -19 0 -10 -6 -21 -14 -24 -10 -4 -12 -18 -9 -51 5 -38 3 -46 -11
-46 -12 0 -16 -10 -16 -45 0 -25 -4 -45 -10 -45 -6 0 -10 -42 -10 -105 0 -63
4 -105 10 -105 6 0 10 -7 10 -15 0 -8 5 -15 11 -15 14 0 39 -26 39 -40 0 -17
-39 -2 -67 26 -12 13 -23 32 -23 44 0 11 -7 20 -15 20 -11 0 -15 12 -15 45 0
25 -4 45 -10 45 -6 0 -10 38 -10 95 0 57 4 95 10 95 6 0 10 20 10 45 0 33 4
45 15 45 10 0 15 11 15 35 0 19 5 35 10 35 6 0 10 16 10 35 0 24 5 35 15 35 8
0 15 3 15 8 0 17 49 62 69 62 12 0 21 6 21 15 0 12 13 15 55 15 42 0 55 -3 55
-15z m-327 -458 c-1 -35 3 -47 13 -47 10 0 14 -13 14 -45 0 -25 5 -45 10 -45
6 0 10 -9 10 -21 0 -19 21 -49 35 -49 10 0 35 -28 35 -39 0 -6 -4 -11 -10 -11
-5 0 -10 -20 -10 -45 0 -34 -4 -45 -15 -45 -13 0 -15 -7 -10 -33 5 -24 2 -39
-9 -50 -9 -8 -16 -29 -16 -46 0 -17 -4 -31 -10 -31 -5 0 -10 -11 -10 -25 0
-22 -4 -25 -35 -25 -19 0 -35 5 -35 10 0 6 -7 10 -16 10 -8 0 -12 -4 -9 -10 3
-5 -3 -10 -15 -10 -33 0 -80 -53 -80 -89 0 -21 5 -31 15 -31 10 0 15 10 15 31
0 33 17 56 46 61 17 3 19 -3 16 -54 -3 -48 -1 -58 12 -58 10 0 16 -9 16 -25 0
-15 -6 -25 -14 -25 -8 0 -16 -6 -18 -12 -8 -23 -38 19 -38 52 0 21 -4 30 -12
28 -17 -6 -23 -68 -8 -68 14 0 40 -25 40 -39 0 -6 -12 -11 -26 -11 -14 0 -23
-4 -19 -10 3 -5 1 -10 -5 -10 -26 0 -40 -30 -40 -84 0 -43 -3 -56 -15 -56 -13
0 -15 22 -15 140 0 87 -4 140 -10 140 -13 0 -13 157 0 162 5 2 11 23 13 47 2
25 9 47 15 49 7 2 12 23 12 48 0 24 5 44 10 44 6 0 10 20 10 45 0 30 5 47 16
53 12 7 15 18 12 36 -4 18 -1 29 8 33 8 3 14 19 14 39 0 19 5 34 10 34 6 0 10
9 10 20 0 11 7 20 15 20 9 0 15 9 15 23 0 12 9 29 20 37 11 8 20 21 20 28 0 8
6 12 13 9 7 -2 11 -21 10 -50z m97 -522 c0 -50 4 -85 10 -85 6 0 10 -16 10
-35 0 -24 5 -35 15 -35 10 0 15 -11 15 -35 0 -34 -1 -35 -41 -35 -24 0 -38 -4
-34 -10 4 -6 -13 -10 -44 -10 -39 0 -51 -4 -51 -15 0 -9 -9 -15 -25 -15 -14 0
-25 4 -25 9 0 4 11 17 25 27 24 18 35 64 15 64 -6 0 -10 27 -10 60 0 56 1 60
23 56 18 -2 21 -8 19 -32 -2 -16 -8 -30 -13 -32 -16 -6 -10 -52 7 -52 11 0 15
6 11 20 -3 13 0 20 9 20 10 0 14 12 14 39 0 35 2 38 25 33 18 -3 25 0 25 12 0
9 -7 16 -15 16 -20 0 -19 36 0 44 12 4 14 14 9 41 -5 28 -3 35 10 35 13 0 16
-14 16 -85z m-37 -296 c39 -21 38 -33 -6 -51 -23 -9 -34 -17 -24 -17 9 -1 16
-6 15 -12 -2 -6 3 -14 10 -16 6 -3 12 2 12 11 0 12 10 16 38 16 39 0 39 0 36
-37 -1 -21 -2 -51 -3 -66 -1 -20 -7 -31 -21 -34 -11 -3 -20 -9 -20 -14 0 -5
-16 -9 -35 -9 -19 0 -35 5 -35 10 0 6 -6 10 -13 10 -9 0 -14 13 -15 35 -1 19
3 35 9 35 14 0 39 -26 39 -39 0 -6 12 -11 28 -11 26 0 27 2 28 53 0 28 -1 44
-4 35 -2 -10 -10 -18 -18 -18 -8 0 -14 -10 -15 -22 0 -13 -3 -17 -6 -10 -2 6
-11 12 -19 12 -8 0 -14 10 -14 27 l0 26 -20 -23 -20 -23 0 22 c0 12 4 19 10
16 20 -12 9 4 -26 39 -20 20 -40 36 -45 36 -5 0 -9 4 -9 8 0 4 16 7 35 7 19
-1 35 2 35 7 0 12 48 10 73 -3z"/>
<path d="M1107 2253 c-9 -2 -15 -9 -12 -14 4 -5 -2 -9 -12 -9 -15 0 -16 -2 -3
-10 13 -9 13 -10 0 -10 -10 0 -11 -3 -4 -8 6 -4 15 -18 19 -31 5 -18 9 -20 16
-10 7 11 9 11 9 1 0 -11 2 -11 13 0 21 21 28 48 11 41 -7 -3 -14 -9 -14 -14 0
-5 -7 -9 -15 -9 -9 0 -15 9 -15 25 0 14 4 25 9 25 5 0 11 7 15 15 3 8 4 14 3
14 -1 -1 -10 -3 -20 -6z"/>
<path d="M940 1840 c0 -47 -3 -60 -15 -60 -10 0 -15 -11 -15 -35 0 -24 5 -35
15 -35 10 0 15 11 15 35 0 19 5 35 10 35 6 0 10 27 10 60 0 33 -4 60 -10 60
-6 0 -10 -27 -10 -60z"/>
<path d="M1730 2730 c0 -5 20 -10 45 -10 31 0 47 -5 51 -15 4 -8 15 -15 25
-15 10 0 19 -4 19 -10 0 -5 11 -10 25 -10 14 0 25 -4 25 -10 0 -5 9 -10 20
-10 11 0 23 -7 26 -15 4 -8 15 -15 25 -15 10 0 19 -4 19 -10 0 -5 7 -10 15
-10 8 0 15 -4 15 -10 0 -5 27 -37 60 -70 33 -33 65 -60 70 -60 6 0 10 -6 10
-13 0 -7 9 -19 20 -27 11 -8 20 -23 20 -33 0 -9 7 -20 15 -23 8 -4 15 -15 15
-25 0 -10 5 -19 10 -19 6 0 10 -11 10 -25 0 -14 5 -25 10 -25 6 0 10 -9 10
-20 0 -11 7 -23 15 -26 9 -4 15 -19 15 -40 0 -19 5 -34 10 -34 6 0 10 -20 10
-44 0 -24 5 -46 11 -48 7 -2 13 -26 15 -53 1 -28 3 -53 3 -57 1 -5 6 -8 11 -8
6 0 10 27 10 60 0 33 -4 60 -10 60 -5 0 -10 23 -10 50 0 39 -3 50 -16 50 -13
0 -15 7 -10 35 6 28 4 35 -9 35 -8 0 -15 9 -15 20 0 11 -4 20 -10 20 -5 0 -10
11 -10 25 0 16 -6 25 -15 25 -9 0 -15 9 -15 25 0 14 -4 25 -10 25 -5 0 -10 12
-10 26 0 14 -4 23 -10 19 -5 -3 -10 1 -10 9 0 9 -5 16 -11 16 -14 0 -39 26
-39 40 0 6 -4 8 -10 5 -5 -3 -10 1 -10 9 0 9 -5 16 -11 16 -14 0 -39 26 -39
40 0 6 -4 8 -10 5 -5 -3 -10 1 -10 9 0 9 -5 16 -11 16 -14 0 -39 26 -39 40 0
6 -4 8 -10 5 -5 -3 -10 1 -10 9 0 10 -9 16 -25 16 -14 0 -25 5 -25 10 0 6 -11
10 -25 10 -16 0 -25 6 -25 16 0 11 -6 15 -20 11 -13 -3 -20 0 -20 9 0 8 -10
14 -25 14 -14 0 -25 5 -25 10 0 6 -22 10 -50 10 -27 0 -50 -4 -50 -10z"/>
<path d="M965 2595 c-55 -57 -106 -104 -112 -104 -7 -1 -13 -6 -13 -12 0 -6
-16 -26 -35 -45 -19 -18 -35 -40 -35 -49 0 -8 -4 -15 -10 -15 -5 0 -10 -5 -10
-11 0 -14 -25 -39 -39 -39 -6 0 -11 -11 -11 -25 0 -14 -4 -25 -10 -25 -5 0
-10 -9 -10 -19 0 -10 -6 -21 -14 -24 -9 -4 -12 -14 -9 -26 4 -15 1 -21 -11
-21 -10 0 -16 -9 -16 -25 0 -14 -4 -25 -10 -25 -5 0 -10 -16 -10 -35 0 -23 -5
-35 -14 -35 -10 0 -13 -10 -9 -35 3 -22 1 -35 -7 -35 -26 0 -40 -30 -40 -84 0
-44 -3 -56 -15 -56 -13 0 -15 -7 -9 -35 5 -28 3 -35 -10 -35 -12 0 -16 -9 -16
-35 0 -19 -4 -35 -10 -35 -5 0 -10 -11 -10 -25 0 -16 -6 -25 -16 -25 -11 0
-14 -5 -10 -16 3 -9 6 -18 6 -20 0 -2 5 -4 10 -4 6 0 10 9 10 20 0 11 5 20 10
20 6 0 10 11 10 25 0 16 6 25 15 25 9 0 15 -9 15 -25 0 -16 -6 -25 -15 -25 -8
0 -15 -9 -15 -20 0 -11 7 -20 15 -20 9 0 15 -9 15 -25 0 -16 -6 -25 -15 -25
-9 0 -15 -9 -15 -25 0 -14 -4 -25 -10 -25 -5 0 -10 -16 -10 -35 0 -24 -5 -35
-14 -35 -11 0 -13 -9 -9 -35 4 -28 2 -35 -11 -35 -9 0 -16 -8 -16 -20 0 -11
-4 -20 -10 -20 -5 0 -10 -7 -10 -15 0 -8 -7 -15 -15 -15 -8 0 -15 -4 -15 -10
0 -6 27 -10 60 -10 33 0 60 4 60 10 0 6 11 10 25 10 16 0 25 6 25 15 0 19 -37
19 -56 0 -18 -17 -50 -20 -59 -5 -3 6 1 10 9 10 10 0 16 9 16 25 0 14 5 25 10
25 6 0 10 16 10 35 0 21 5 35 13 35 7 0 13 14 13 32 1 18 6 34 13 36 6 2 11
15 11 28 0 13 5 24 10 24 6 0 10 30 10 69 0 48 5 74 15 84 11 12 12 17 2 20
-9 4 -9 6 1 6 6 1 12 8 12 16 0 8 4 15 8 15 4 0 9 14 10 32 2 18 7 35 12 38 5
3 10 18 12 33 3 16 8 32 14 35 5 4 11 21 12 37 2 17 8 32 13 33 5 2 9 12 9 23
0 11 7 19 18 19 14 0 15 2 2 10 -9 6 -11 13 -5 18 6 4 11 14 13 22 2 8 8 17
13 18 5 2 9 15 9 28 0 13 5 24 10 24 6 0 10 11 10 25 0 15 6 25 14 25 8 0 17
6 19 13 4 10 6 10 6 0 1 -18 69 -17 87 1 8 8 14 21 14 28 0 7 9 21 20 31 13
11 20 13 20 4 0 -9 3 -8 9 2 7 11 9 11 14 0 3 -8 6 3 6 24 1 20 6 37 11 37 6
0 10 7 10 15 0 8 7 15 15 15 12 0 15 9 13 35 -1 19 -6 35 -10 35 -4 0 -8 8 -9
18 0 10 -3 12 -6 4 -2 -6 -10 -9 -16 -5 -17 11 -39 13 -59 7 -34 -10 -18 -24
27 -24 39 0 45 -3 45 -21 0 -22 -22 -49 -40 -49 -8 0 -10 -9 -6 -25 4 -15 2
-25 -5 -25 -14 0 -39 -25 -39 -39 0 -6 -7 -11 -16 -11 -10 0 -14 -7 -12 -22 3
-19 -2 -22 -32 -22 -22 0 -34 4 -32 12 1 7 -9 12 -23 12 -20 0 -25 -5 -25 -25
0 -16 -6 -25 -16 -25 -10 0 -14 -7 -12 -22 2 -14 -2 -22 -9 -20 -8 1 -13 -8
-13 -23 0 -14 -4 -25 -10 -25 -5 0 -10 -16 -10 -35 0 -24 -5 -35 -14 -35 -10
0 -13 -8 -10 -25 3 -18 0 -25 -11 -25 -11 0 -15 10 -15 35 0 19 5 35 10 35 6
0 10 16 10 35 0 24 5 35 15 35 9 0 15 9 15 25 0 14 5 25 10 25 6 0 10 7 10 16
0 8 7 22 15 30 8 8 12 21 9 29 -4 9 0 15 10 15 10 0 16 8 16 21 0 22 22 49 39
49 6 0 11 7 11 16 0 8 5 12 10 9 6 -3 10 3 10 15 0 11 9 30 20 42 17 19 20 19
20 5 0 -9 7 -17 15 -17 18 0 20 27 3 32 -9 3 -8 9 4 21 9 9 19 17 23 17 8 0
35 27 35 35 0 10 48 55 60 55 5 0 10 5 10 11 0 11 25 39 35 39 10 0 35 28 35
39 0 6 12 11 28 11 26 1 26 1 8 15 -11 8 -22 15 -25 15 -3 -1 -51 -48 -106
-105z m-355 -640 c0 -19 -4 -35 -10 -35 -5 0 -10 -14 -10 -31 0 -17 -6 -37
-14 -45 -8 -8 -13 -25 -10 -39 3 -18 0 -25 -11 -25 -11 0 -15 -10 -15 -35 0
-19 -4 -35 -10 -35 -5 0 -10 16 -10 35 0 19 5 35 10 35 6 0 10 16 10 35 0 19
5 35 10 35 6 0 10 23 10 52 0 35 5 57 18 69 25 26 32 23 32 -16z"/>
<path d="M1393 2693 c-27 -10 -11 -23 30 -23 39 1 41 2 23 15 -20 15 -32 17
-53 8z"/>
<path d="M1660 2520 c0 -5 11 -10 25 -10 16 0 25 -6 25 -15 0 -9 9 -15 21 -15
22 0 49 -22 49 -40 0 -6 5 -8 10 -5 6 3 10 -1 10 -9 0 -9 7 -16 15 -16 8 0 15
5 15 11 0 11 -25 39 -35 39 -10 0 -35 28 -35 39 0 6 -11 11 -25 11 -14 0 -25
5 -25 10 0 6 -11 10 -25 10 -14 0 -25 -4 -25 -10z"/>
<path d="M1620 2494 c0 -8 5 -12 10 -9 6 3 10 -1 10 -9 0 -9 8 -16 18 -16 13
0 14 2 4 9 -8 4 -13 11 -13 15 3 20 -1 26 -14 26 -8 0 -15 -7 -15 -16z"/>
<path d="M2076 2424 c-3 -9 -6 -23 -5 -32 0 -12 3 -10 9 6 10 25 50 31 50 7 0
-8 7 -15 15 -15 10 0 15 -11 15 -35 0 -19 -5 -35 -11 -35 -13 0 -39 25 -39 38
0 5 -7 9 -15 9 -21 0 -19 -4 15 -44 17 -18 30 -28 30 -21 0 10 2 10 9 0 6 -11
10 -10 16 5 5 10 7 21 7 26 -1 4 2 7 7 7 17 0 -6 59 -35 87 -18 18 -61 16 -68
-3z"/>
<path d="M1295 2410 c3 -5 1 -10 -4 -10 -7 0 -10 -21 -9 -52 l2 -53 3 48 c2
26 8 47 14 47 5 0 9 7 9 15 0 8 -5 15 -11 15 -5 0 -7 -4 -4 -10z"/>
<path d="M1835 2411 c-5 -10 -4 -16 3 -19 7 -2 12 -10 12 -19 0 -17 22 -13 28
5 2 7 -3 12 -11 12 -9 0 -17 8 -19 18 -3 14 -5 15 -13 3z"/>
<path d="M2017 2413 c-13 -12 -7 -43 8 -43 9 0 15 -9 15 -25 0 -14 5 -25 10
-25 6 0 10 -11 10 -25 0 -16 6 -25 15 -25 10 0 15 -11 15 -35 0 -19 5 -35 10
-35 6 0 10 -12 10 -26 0 -14 4 -23 10 -19 6 3 10 15 10 26 0 10 -4 19 -10 19
-5 0 -10 16 -10 35 0 19 -4 35 -10 35 -5 0 -10 11 -10 25 0 16 -6 25 -15 25
-9 0 -15 9 -15 25 0 14 -4 25 -10 25 -5 0 -10 11 -10 25 0 24 -10 32 -23 18z"/>
<path d="M1900 2250 c0 -11 5 -20 10 -20 6 0 10 -18 10 -40 0 -26 4 -39 12
-37 8 1 13 -10 13 -32 0 -19 6 -36 13 -38 7 -3 12 -24 12 -59 0 -30 5 -54 10
-54 6 0 10 -53 10 -140 0 -87 -4 -140 -10 -140 -5 0 -10 -16 -10 -35 0 -19 -4
-35 -10 -35 -5 0 -10 8 -10 19 0 10 -7 24 -15 31 -22 18 -21 110 1 110 9 0 14
6 11 13 -2 6 -14 11 -26 10 -18 -2 -21 2 -21 37 0 22 -4 40 -10 40 -5 0 -10
14 -10 30 0 18 -6 33 -15 36 -9 4 -15 19 -15 40 0 19 -4 34 -10 34 -5 0 -10
-18 -10 -40 0 -22 5 -40 10 -40 6 0 10 -16 10 -35 0 -24 5 -35 15 -35 8 0 15
-9 15 -20 0 -15 -7 -20 -25 -20 -20 0 -25 5 -25 25 0 14 -4 25 -10 25 -5 0
-10 9 -10 19 0 10 -7 21 -15 25 -8 3 -15 15 -15 26 0 11 -4 20 -10 20 -5 0
-10 16 -10 35 0 19 -4 35 -10 35 -5 0 -10 11 -10 25 0 16 -6 25 -15 25 -10 0
-15 11 -15 35 0 19 -4 35 -10 35 -5 0 -10 -16 -10 -35 0 -24 -5 -35 -15 -35
-12 0 -15 -16 -15 -85 0 -53 -4 -85 -10 -85 -7 0 -10 -22 -8 -57 l3 -58 93 0
c67 0 92 -3 92 -12 0 -7 5 -13 10 -13 6 0 10 -11 10 -25 0 -16 6 -25 16 -25 8
0 12 -4 9 -10 -3 -5 1 -10 9 -10 10 0 16 -9 16 -25 0 -14 5 -25 10 -25 6 0 10
-9 10 -20 0 -11 7 -20 15 -20 8 0 15 -7 15 -15 0 -9 -9 -15 -25 -15 -16 0 -25
6 -25 15 0 12 -14 15 -70 15 -40 0 -70 4 -70 10 0 6 -22 10 -50 10 -27 0 -50
-4 -50 -10 0 -5 23 -10 50 -10 38 0 50 -4 50 -15 0 -11 -12 -15 -51 -15 -31 0
-48 -4 -44 -10 3 -5 -1 -10 -9 -10 -9 0 -16 -7 -16 -16 0 -8 5 -12 10 -9 6 3
10 -1 10 -9 0 -9 7 -16 15 -16 12 0 15 -13 15 -55 0 -30 5 -55 10 -55 6 0 10
-11 10 -25 0 -14 5 -25 10 -25 6 0 10 -7 10 -15 0 -8 7 -15 15 -15 17 0 21 26
4 32 -5 2 -11 23 -12 47 -2 39 1 44 21 47 18 3 22 -1 22 -21 0 -14 -4 -25 -10
-25 -5 0 -10 5 -10 12 0 6 -2 9 -5 7 -2 -3 -2 -15 2 -27 8 -31 41 -29 49 3 3
14 10 25 15 25 5 0 9 8 9 17 0 9 -3 14 -6 11 -9 -10 -44 30 -44 51 0 14 7 19
25 17 20 -1 25 -6 25 -29 0 -26 2 -28 35 -21 33 6 35 4 35 -19 0 -14 -7 -32
-15 -41 -8 -8 -15 -24 -15 -35 0 -17 -6 -21 -35 -21 -25 0 -35 -5 -35 -15 0
-11 9 -15 33 -13 37 2 67 28 67 58 0 12 5 18 10 15 6 -4 10 13 10 44 0 28 -4
51 -10 51 -5 0 -10 6 -10 13 0 8 17 12 58 10 l57 -1 3 -56 c2 -45 0 -56 -13
-56 -11 0 -15 -12 -15 -50 0 -27 -4 -50 -10 -50 -5 0 -10 -7 -10 -16 0 -9 -7
-22 -16 -28 -9 -7 -12 -18 -8 -29 9 -23 24 -22 24 3 0 11 4 20 10 20 5 0 12
11 16 25 3 14 10 25 15 25 5 0 9 20 9 45 0 25 5 45 10 45 6 0 10 55 10 145 0
90 -4 145 -10 145 -6 0 -10 53 -10 140 0 118 -2 140 -15 140 -12 0 -15 13 -15
60 0 33 -4 60 -10 60 -5 0 -10 16 -10 35 0 19 -4 35 -10 35 -5 0 -10 16 -10
35 0 24 -5 35 -15 35 -8 0 -15 9 -15 20 0 11 -4 20 -10 20 -5 0 -10 -9 -10
-20z m-190 -185 c0 -15 6 -25 14 -25 11 0 13 -9 9 -35 -4 -28 -2 -35 11 -35
10 0 16 -9 16 -25 0 -14 5 -25 10 -25 6 0 10 -11 10 -25 0 -14 6 -25 13 -25 7
0 13 -9 14 -20 2 -18 -4 -20 -72 -20 l-73 0 0 45 c0 32 4 45 14 45 11 0 14 18
14 85 0 50 4 85 10 85 6 0 10 -11 10 -25z m188 -293 c2 -18 -1 -32 -7 -32 -6
0 -11 9 -11 20 0 11 -7 20 -15 20 -15 0 -20 12 -9 22 15 16 39 -1 42 -30z
m122 -142 c0 -57 -1 -60 -25 -60 -20 0 -25 5 -25 25 0 14 5 25 10 25 6 0 10
16 10 35 0 24 5 35 15 35 12 0 15 -13 15 -60z m-220 -65 c0 -8 -5 -15 -10 -15
-6 0 -22 -11 -36 -25 -14 -14 -20 -25 -14 -25 5 0 10 -5 10 -11 0 -8 -5 -8
-15 1 -8 7 -15 19 -15 26 0 8 -6 14 -12 15 -9 0 -9 2 1 6 11 5 11 7 0 14 -13
8 21 13 69 12 6 -1 12 3 12 8 0 5 2 9 5 9 3 0 5 -7 5 -15z m96 0 c8 -7 6 -15
-8 -27 -19 -16 -48 -15 -48 3 0 5 -7 9 -15 9 -8 0 -15 7 -15 15 0 12 9 15 38
13 20 -2 42 -7 48 -13z"/>
<path d="M1577 2170 c-9 -11 -12 -20 -6 -20 5 0 7 -4 4 -10 -3 -5 -2 -10 4
-10 5 0 12 -8 14 -17 3 -10 3 1 0 25 -5 35 -3 42 12 42 15 0 17 -7 12 -42 -3
-24 -3 -35 0 -25 2 9 9 17 14 17 6 0 7 5 4 10 -3 6 -1 10 4 10 6 0 3 9 -6 20
-10 11 -22 20 -28 20 -6 0 -18 -9 -28 -20z"/>
<path d="M2130 2110 c0 -38 4 -50 15 -50 11 0 15 -12 15 -45 0 -25 5 -45 10
-45 6 0 10 -27 10 -60 0 -33 4 -60 10 -60 6 0 10 -68 10 -185 0 -117 -4 -185
-10 -185 -5 0 -10 -15 -10 -34 0 -19 -6 -36 -12 -38 -7 -3 -11 -18 -10 -35 1
-20 -3 -33 -13 -37 -8 -3 -15 -15 -15 -26 0 -11 -4 -20 -10 -20 -5 0 -10 -11
-10 -25 0 -15 -6 -25 -15 -25 -11 0 -13 8 -8 33 3 17 10 34 15 35 14 6 9 52
-6 52 -9 0 -12 -8 -8 -25 3 -18 0 -25 -12 -25 -11 0 -16 -9 -16 -26 0 -14 -4
-23 -10 -19 -5 3 -10 1 -10 -5 0 -14 -25 -40 -39 -40 -6 0 -11 -6 -11 -14 0
-9 -7 -12 -20 -9 -11 3 -20 9 -20 14 0 14 -20 11 -36 -5 -25 -25 -16 -36 31
-36 42 0 45 -2 45 -26 0 -14 -4 -23 -10 -19 -6 4 -10 -5 -10 -19 0 -17 -6 -26
-15 -26 -11 0 -14 -7 -9 -25 4 -16 2 -25 -6 -25 -12 0 -40 -24 -40 -35 0 -14
-30 -35 -49 -35 -12 0 -21 -4 -21 -10 0 -5 -11 -10 -25 -10 -16 0 -25 -6 -25
-15 0 -9 -10 -15 -26 -15 -14 0 -23 -4 -19 -10 8 -13 55 -13 55 0 0 6 9 10 19
10 11 0 21 4 23 9 2 5 12 11 23 13 19 3 20 -3 23 -100 2 -80 -1 -103 -10 -100
-7 3 -14 14 -16 26 -2 12 -8 22 -13 22 -5 0 -9 9 -9 20 0 11 -4 20 -10 20 -5
0 -10 7 -10 15 0 12 -14 15 -62 16 -41 1 -54 3 -39 8 34 9 39 31 7 31 -14 0
-26 -4 -26 -10 0 -5 -11 -10 -25 -10 -16 0 -25 -6 -25 -15 0 -9 -9 -15 -25
-15 -14 0 -25 -4 -25 -10 0 -6 -37 -10 -90 -10 -70 0 -90 3 -90 14 0 10 -11
12 -47 8 -27 -3 -49 -9 -51 -13 -2 -5 -17 -9 -33 -9 -21 0 -41 -11 -69 -39
-22 -22 -40 -42 -40 -45 0 -14 27 -4 40 14 20 28 30 25 30 -11 0 -30 19 -59
39 -59 6 0 11 -7 11 -16 0 -8 5 -12 10 -9 6 3 10 -1 10 -9 0 -10 9 -16 21 -16
22 0 49 -22 49 -39 0 -6 11 -11 25 -11 24 0 25 -3 25 -55 0 -38 -4 -55 -13
-55 -9 0 -12 -11 -9 -35 3 -27 1 -35 -12 -35 -12 0 -16 -9 -16 -35 0 -24 5
-35 15 -35 9 0 15 -9 15 -23 0 -12 9 -29 20 -37 11 -8 20 -20 20 -27 0 -7 7
-13 15 -13 12 0 15 13 15 56 0 60 14 84 49 84 12 0 21 6 21 15 0 8 5 15 10 15
6 0 10 11 10 25 0 14 -4 25 -10 25 -5 0 -10 14 -10 30 0 17 5 30 10 30 6 0 10
13 10 30 0 32 48 90 75 90 16 0 45 23 45 35 0 10 28 35 39 35 6 0 11 7 11 16
0 8 5 12 10 9 6 -3 10 1 10 9 0 9 5 16 10 16 6 0 10 7 10 15 0 8 -4 15 -10 15
-5 0 -10 -7 -10 -15 0 -8 -7 -15 -15 -15 -8 0 -15 -4 -15 -10 0 -5 -4 -10 -10
-10 -5 0 -10 20 -10 45 l0 45 50 0 c49 0 50 -1 44 -25 -5 -19 -2 -25 10 -25 9
0 16 -8 16 -20 0 -11 5 -20 10 -20 6 0 10 -7 10 -15 0 -8 7 -15 16 -15 8 0 12
-4 9 -10 -3 -5 1 -10 9 -10 13 0 16 -12 16 -60 0 -47 -3 -60 -15 -60 -13 0
-14 -9 -9 -45 5 -37 3 -45 -10 -45 -12 0 -16 -10 -16 -35 0 -19 -4 -35 -10
-35 -5 0 -10 -16 -10 -35 0 -25 -4 -35 -16 -35 -12 0 -15 -6 -10 -25 5 -18 2
-25 -8 -25 -8 0 -17 -6 -20 -12 -5 -10 -7 -10 -12 0 -3 6 -12 12 -20 12 -10 0
-13 7 -8 25 5 19 2 25 -10 25 -11 0 -16 9 -16 26 0 14 -4 23 -10 19 -6 -4 -10
13 -10 44 0 28 -4 51 -10 51 -5 0 -10 16 -10 35 0 24 -5 35 -15 35 -9 0 -15 9
-15 25 0 14 -4 25 -10 25 -5 0 -10 -11 -10 -25 0 -14 5 -25 10 -25 6 0 10 -16
10 -35 0 -19 5 -35 10 -35 6 0 10 -23 10 -51 0 -31 -4 -48 -10 -44 -6 4 -10
-5 -10 -19 0 -14 -4 -26 -10 -26 -5 0 -10 -11 -10 -25 0 -16 -6 -25 -15 -25
-9 0 -15 -10 -15 -26 0 -14 -4 -23 -10 -19 -5 3 -10 -1 -10 -9 0 -9 -4 -16
-10 -16 -5 0 -10 -11 -10 -25 0 -14 -5 -25 -11 -25 -7 0 -21 -10 -32 -22 -13
-16 -21 -19 -24 -10 -3 6 -16 12 -29 12 -19 0 -24 5 -24 25 0 14 -4 25 -10 25
-5 0 -10 9 -10 20 0 11 -7 20 -15 20 -9 0 -15 9 -15 25 0 14 -4 25 -10 25 -5
0 -10 16 -10 35 0 19 -4 35 -10 35 -5 0 -10 11 -10 25 0 16 -6 25 -15 25 -9 0
-15 -9 -15 -25 0 -14 5 -25 10 -25 6 0 10 -16 10 -35 0 -24 5 -35 15 -35 9 0
15 -9 15 -25 0 -14 5 -25 10 -25 6 0 10 -11 10 -25 0 -14 5 -25 10 -25 6 0 10
-9 10 -20 0 -11 7 -20 15 -20 8 0 15 -7 15 -15 0 -8 9 -15 19 -15 11 0 23 -4
26 -10 3 -5 37 -10 76 -10 39 0 69 -4 69 -10 0 -5 20 -10 45 -10 41 0 45 2 45
24 0 14 7 31 15 40 8 8 15 27 15 42 0 24 42 74 63 74 4 0 7 7 7 15 0 8 5 15
10 15 6 0 10 9 10 19 0 10 6 21 13 24 7 2 13 17 15 33 1 15 7 33 12 38 6 6 10
22 10 37 0 15 5 31 10 34 6 3 10 26 10 51 0 28 4 44 13 44 8 0 11 17 9 60 -3
50 -1 60 12 60 9 0 16 -4 16 -10 0 -5 5 -10 10 -10 6 0 10 20 10 45 0 25 5 45
10 45 15 0 12 -97 -2 -104 -10 -5 -10 -7 0 -12 9 -4 12 -52 12 -187 0 -141 -3
-178 -12 -169 -23 23 -42 13 -95 -52 -15 -18 -17 -46 -3 -46 6 0 10 -6 10 -13
0 -7 14 -24 32 -37 25 -19 35 -21 50 -11 16 10 18 8 18 -29 0 -39 -1 -40 -30
-38 -16 1 -30 7 -30 13 0 7 -3 7 -8 0 -10 -14 -112 -19 -112 -5 0 5 -22 10
-50 10 -33 0 -50 -4 -50 -12 0 -10 -58 -13 -255 -13 -197 0 -255 3 -255 13 0
8 -17 12 -50 12 -38 0 -50 -4 -50 -15 0 -8 -9 -15 -19 -15 -10 0 -21 7 -25 15
-3 8 -10 15 -16 15 -5 0 -10 -7 -10 -15 0 -8 -4 -15 -10 -15 -6 0 -10 34 -10
81 0 66 3 79 13 71 14 -12 59 -13 52 -1 -3 3 5 16 16 27 24 27 24 27 0 54 -11
11 -18 24 -16 28 3 5 -11 7 -30 6 l-35 -1 0 92 c0 55 -4 93 -10 93 -5 0 -10
13 -10 29 0 22 6 30 24 35 13 3 26 13 30 21 7 19 -8 19 -28 0 -19 -19 -36 -19
-36 0 0 8 7 15 15 15 8 0 15 5 15 10 0 6 -7 10 -15 10 -8 0 -15 5 -15 10 0 6
7 10 15 10 8 0 15 -4 15 -10 0 -5 11 -10 25 -10 14 0 25 5 25 10 0 6 9 10 20
10 19 0 20 -7 20 -165 0 -103 4 -165 10 -165 6 0 10 -14 10 -31 0 -22 10 -39
34 -62 19 -18 36 -44 38 -57 3 -24 6 -25 86 -28 64 -2 82 -6 82 -17 0 -12 -17
-15 -80 -15 -47 0 -80 -4 -80 -10 0 -16 149 -13 166 4 19 19 18 29 -6 46 -11
8 -20 25 -20 37 0 13 -4 23 -10 23 -5 0 -10 9 -10 20 0 11 -7 23 -15 26 -9 4
-15 19 -15 40 0 19 -4 34 -10 34 -5 0 -10 9 -10 20 0 11 5 20 10 20 6 0 10 9
10 19 0 11 5 23 10 26 6 3 10 15 10 26 0 10 7 19 15 19 9 0 15 9 15 25 0 14 5
25 10 25 6 0 10 11 10 25 0 16 6 25 15 25 8 0 15 5 15 10 0 6 -7 10 -15 10 -8
0 -15 -4 -15 -10 0 -5 -7 -10 -16 -10 -12 0 -15 -6 -11 -21 3 -12 0 -22 -9
-26 -8 -3 -14 -14 -14 -24 0 -10 -4 -19 -10 -19 -5 0 -10 -11 -10 -25 0 -16
-6 -25 -15 -25 -11 0 -14 -7 -9 -25 5 -19 2 -25 -10 -25 -11 0 -16 -9 -16 -26
0 -14 -4 -23 -10 -19 -6 4 -10 -5 -10 -19 0 -17 -5 -26 -16 -26 -12 0 -15 -6
-10 -25 4 -15 2 -25 -5 -25 -21 0 -39 29 -39 64 0 20 -5 35 -10 34 -7 -2 -11
62 -13 185 -1 103 2 187 6 187 12 0 37 27 37 39 0 6 -4 11 -10 11 -5 0 -10 16
-10 35 0 19 5 35 10 35 6 0 10 20 10 45 0 39 3 45 20 45 11 0 23 -7 26 -15 4
-8 15 -15 25 -15 10 0 19 -4 19 -10 0 -5 11 -10 25 -10 16 0 25 6 25 15 0 8
-9 15 -20 15 -11 0 -20 5 -20 10 0 6 -11 10 -25 10 -14 0 -25 6 -25 13 0 9
-11 12 -35 9 -27 -3 -35 -1 -35 12 0 9 -7 16 -16 16 -8 0 -12 4 -9 10 3 5 1
10 -5 10 -14 0 -40 25 -40 39 0 6 -7 11 -16 11 -8 0 -12 5 -9 10 9 15 -15 12
-31 -4 -10 -10 -14 -38 -14 -90 0 -72 1 -76 25 -82 24 -6 25 -9 25 -85 0 -64
-3 -79 -15 -79 -8 0 -15 -4 -15 -10 0 -13 11 -12 33 4 13 10 17 28 17 86 0 65
-3 75 -25 96 -21 20 -25 32 -25 84 0 33 2 60 5 60 3 0 19 -13 35 -29 28 -26
30 -33 30 -100 0 -81 17 -97 22 -19 4 74 28 77 28 4 0 -31 -4 -56 -9 -56 -5 0
-11 -24 -13 -54 -5 -55 -23 -86 -52 -86 -9 0 -16 -7 -16 -15 0 -8 -7 -15 -15
-15 -8 0 -15 4 -15 9 0 5 -10 11 -22 13 -22 3 -38 28 -18 28 25 0 40 30 40 82
0 45 -4 56 -25 72 -23 17 -25 26 -25 90 0 64 2 72 28 95 17 15 23 25 15 28 -7
3 -13 13 -13 24 0 27 -35 65 -45 49 -4 -7 -3 -15 2 -19 5 -3 13 -21 16 -38 5
-25 3 -33 -8 -33 -13 0 -15 -39 -15 -270 0 -209 3 -270 13 -270 9 0 12 -54 12
-235 l0 -235 402 0 c312 0 402 3 406 13 4 10 6 10 6 0 1 -10 30 -13 110 -13
l109 0 1 596 c1 499 4 598 15 610 20 20 26 18 26 -11 0 -16 6 -25 15 -25 8 0
15 6 15 13 0 7 9 19 20 27 11 8 20 25 20 37 0 14 6 23 15 23 12 0 15 -18 15
-105 0 -87 -3 -105 -15 -105 -12 0 -15 -16 -15 -85 0 -50 -4 -85 -10 -85 -5 0
-10 -25 -10 -55 0 -30 -4 -55 -10 -55 -6 0 -10 -48 -10 -125 0 -102 -3 -127
-15 -131 -11 -5 -15 -22 -15 -65 0 -33 -4 -59 -10 -59 -6 0 -10 -73 -10 -200
l0 -200 26 0 c23 0 25 3 20 25 -5 18 -2 25 9 25 21 0 19 9 -10 36 -28 25 -34
64 -10 64 8 0 15 -7 15 -15 0 -8 9 -15 20 -15 11 0 20 -4 20 -10 0 -5 11 -10
25 -10 14 0 25 -5 25 -11 0 -14 -25 -39 -39 -39 -6 0 -11 -11 -11 -25 l0 -25
165 0 165 0 0 51 c0 31 -4 48 -10 44 -6 -4 -10 13 -10 44 0 28 2 51 5 51 16 0
42 -35 38 -51 -4 -13 0 -19 11 -19 15 0 20 -11 17 -37 -1 -7 3 -13 9 -13 5 0
10 -12 10 -26 0 -14 4 -23 10 -19 6 3 10 -1 10 -9 0 -12 10 -16 40 -16 l40 0
0 50 c0 28 -3 49 -7 49 -23 -4 -29 4 -25 36 3 21 0 35 -7 35 -6 0 -11 16 -11
35 0 23 -5 35 -14 35 -10 0 -12 11 -8 45 4 37 2 45 -12 45 -13 0 -16 10 -16
51 0 31 -4 48 -10 44 -5 -3 -10 -26 -10 -51 0 -24 5 -44 10 -44 6 0 10 -22 10
-50 0 -27 5 -50 10 -50 6 0 10 -14 10 -30 0 -18 6 -33 15 -36 9 -4 15 -19 15
-40 0 -23 5 -34 15 -34 11 0 13 -8 8 -32 -7 -41 -7 -40 -27 -32 -9 3 -16 17
-16 30 0 14 -6 24 -14 24 -9 0 -13 7 -11 20 2 13 -2 20 -11 20 -8 0 -14 9 -14
21 0 22 -22 49 -39 49 -6 0 -11 7 -11 15 0 12 -7 14 -27 9 l-26 -7 6 52 c5 41
3 51 -8 51 -11 0 -15 12 -15 45 0 25 -4 45 -10 45 -5 0 -10 23 -10 50 0 38 -4
50 -15 50 -11 0 -15 12 -15 45 0 33 4 45 15 45 12 0 15 15 15 75 0 86 -18 115
-70 115 -28 0 -30 3 -30 35 0 19 -4 35 -10 35 -5 0 -10 20 -10 45 0 29 4 45
13 45 8 0 11 17 9 60 -3 50 -1 60 12 60 12 0 16 11 16 45 0 25 5 45 10 45 6 0
10 16 10 35 0 19 5 35 10 35 6 0 10 35 10 85 0 50 -4 85 -10 85 -6 0 -10 45
-10 115 0 70 -4 115 -10 115 -6 0 -10 -85 -10 -235 0 -202 -2 -235 -15 -235
-11 0 -15 -12 -15 -45 0 -25 -4 -45 -10 -45 -6 0 -10 -27 -10 -60 0 -33 -4
-60 -10 -60 -7 0 -10 155 -10 445 0 400 -2 445 -16 445 -13 0 -15 10 -12 60 2
43 -1 60 -9 60 -9 0 -13 16 -13 45 0 25 -4 45 -10 45 -5 0 -10 23 -10 50 0 38
-4 50 -15 50 -11 0 -15 -12 -15 -50z m73 -798 c2 -68 -1 -92 -10 -92 -10 0
-13 26 -13 96 0 64 4 94 11 92 6 -2 11 -40 12 -96z m-3 -232 c0 -100 3 -120
15 -120 11 0 15 -12 15 -45 0 -25 5 -45 10 -45 6 0 10 -18 10 -41 0 -24 -4
-38 -10 -34 -5 3 -10 22 -10 41 0 24 -5 34 -15 34 -11 0 -15 -11 -15 -35 0
-35 -35 -85 -60 -85 -5 0 -10 -4 -10 -10 0 -5 7 -10 15 -10 9 0 15 -9 15 -25
0 -20 -5 -25 -25 -25 -14 0 -25 5 -25 10 0 6 5 10 10 10 14 0 12 27 -2 33 -10
4 -9 8 2 17 11 9 12 13 3 17 -15 6 -17 33 -3 33 6 0 10 25 10 55 0 42 3 55 15
55 12 0 15 16 15 85 0 50 4 85 10 85 6 0 10 27 10 60 0 33 4 60 10 60 6 0 10
-47 10 -120z m-224 -315 c-8 -8 -19 -15 -24 -15 -5 0 -7 -11 -4 -25 4 -22 1
-25 -22 -25 l-26 0 0 140 c0 93 4 140 11 140 14 0 39 25 39 39 0 6 5 11 10 11
6 0 10 8 10 18 0 10 3 22 8 26 4 4 8 -60 10 -144 2 -121 0 -154 -12 -165z
m-286 -5 c0 -64 -3 -80 -15 -80 -8 0 -15 -4 -15 -10 0 -5 -7 -10 -15 -10 -8 0
-32 -18 -55 -40 -29 -29 -40 -47 -40 -70 0 -20 -5 -30 -15 -30 -11 0 -15 -11
-15 -40 0 -29 4 -40 15 -40 8 0 15 -9 15 -20 0 -13 -7 -20 -20 -20 -31 0 -80
-55 -80 -90 0 -17 -4 -30 -10 -30 -5 0 -10 11 -10 25 0 14 -4 25 -10 25 -5 0
-10 16 -10 35 0 19 5 35 10 35 6 0 10 16 10 35 0 21 5 35 13 35 8 0 12 17 11
54 0 56 -17 86 -49 86 -19 0 -45 23 -45 39 0 6 -4 11 -10 11 -6 0 -10 33 -10
80 l0 80 35 0 c22 0 35 -5 35 -13 0 -17 182 -16 188 1 2 7 12 12 23 12 10 0
19 5 19 10 0 6 11 10 25 10 25 0 25 -1 25 -80z m-380 -20 c0 -63 -3 -69 -26
-46 -16 17 -19 56 -4 56 6 0 10 5 10 10 0 6 -11 10 -25 10 -16 0 -25 6 -25 15
0 10 11 15 35 15 l35 0 0 -60z m-300 -6 c0 -24 -4 -34 -12 -32 -15 5 -22 42
-14 64 10 25 26 5 26 -32z m1330 -45 l0 -79 -45 0 c-25 0 -45 5 -45 10 0 6 -4
10 -10 10 -5 0 -10 -20 -10 -45 0 -33 -4 -45 -15 -45 -12 0 -15 14 -15 70 0
40 -4 70 -10 70 -6 0 -10 -27 -10 -60 0 -43 -4 -60 -13 -60 -16 0 -13 113 3
118 13 5 13 52 0 52 -5 0 -10 5 -10 10 0 6 9 10 19 10 10 0 21 6 24 13 3 8 24
11 71 9 l66 -4 0 -79z m-210 -79 c0 -27 -4 -50 -10 -50 -5 0 -10 23 -10 50 0
28 5 50 10 50 6 0 10 -22 10 -50z m190 -60 c0 -22 5 -40 10 -40 6 0 10 -20 10
-45 0 -33 4 -45 15 -45 8 0 15 -4 15 -10 0 -5 -5 -10 -11 -10 -14 0 -39 26
-39 41 0 10 -3 10 -12 0 -10 -11 -10 -14 0 -18 15 -6 17 -163 2 -163 -5 0 -10
-11 -10 -25 0 -16 -6 -25 -15 -25 -10 0 -15 -11 -15 -35 0 -19 -4 -35 -10 -35
-5 0 -10 -11 -10 -25 0 -14 -4 -25 -9 -25 -5 0 -11 -9 -14 -20 -7 -26 -37 -26
-37 0 0 11 4 20 8 20 5 0 9 7 9 15 0 8 -4 15 -9 15 -4 0 -8 7 -8 15 0 8 -7 15
-15 15 -8 0 -15 4 -15 8 0 4 -10 8 -22 9 -11 1 -24 7 -28 13 -4 6 -14 10 -21
8 -8 -2 -14 1 -14 7 0 5 13 10 29 11 16 2 32 8 36 14 4 7 10 11 14 11 23 -3
36 0 31 9 -3 6 0 10 8 10 16 0 63 50 61 65 -1 16 -27 65 -33 65 -4 0 -8 10 -8
22 -1 13 -7 24 -13 26 -5 2 -10 12 -10 22 0 9 -7 23 -15 30 -18 15 -18 20 0
44 12 15 18 17 27 8 9 -9 7 -13 -5 -18 -24 -9 -21 -24 4 -24 22 0 49 -22 49
-39 0 -6 11 -11 25 -11 16 0 25 6 25 15 0 9 -9 15 -25 15 -24 0 -25 3 -25 60
l0 60 35 0 c34 0 35 -1 35 -40z m-201 -26 c11 -10 16 -24 14 -35 -4 -13 0 -19
11 -19 10 0 16 -9 16 -25 0 -14 5 -25 10 -25 6 0 10 -14 10 -31 0 -30 19 -59
39 -59 6 0 11 -7 11 -15 0 -8 -7 -15 -15 -15 -8 0 -15 -4 -15 -10 0 -5 -9 -10
-20 -10 -11 0 -20 -4 -20 -10 0 -5 -11 -10 -25 -10 -16 0 -25 -6 -25 -15 0 -9
-9 -15 -25 -15 -20 0 -25 5 -25 25 0 16 6 25 15 25 8 0 14 6 13 13 -2 8 9 11
35 9 36 -4 37 -3 37 32 0 25 -4 36 -15 36 -9 0 -15 9 -15 25 0 14 -4 25 -10
25 -5 0 -10 7 -10 16 0 8 -4 12 -10 9 -6 -4 -10 13 -10 44 0 28 2 51 5 51 3 0
13 -7 24 -16z m-17 -143 c8 -27 6 -37 -10 -52 -26 -24 -32 -16 -32 43 0 41 3
49 17 46 9 -2 21 -18 25 -37z m268 -26 c0 -14 5 -25 10 -25 6 0 10 -22 10 -50
0 -27 5 -50 10 -50 6 0 10 -18 10 -40 0 -33 -3 -40 -20 -40 -11 0 -20 6 -20
13 0 8 -4 7 -10 -3 -9 -13 -10 -13 -11 0 0 10 -2 11 -6 3 -2 -7 -11 -13 -19
-13 -17 0 -17 -1 1 -36 l15 -29 0 30 c0 31 14 25 24 -10 3 -12 4 -9 2 7 -3 26
-1 28 30 25 31 -2 34 -5 33 -32 -1 -17 -3 -22 -6 -12 -2 9 -9 15 -14 12 -5 -4
-9 1 -9 9 0 9 -4 16 -10 16 -16 0 -12 -37 5 -44 8 -3 14 -13 14 -23 -1 -17 -2
-17 -6 -1 -3 13 -14 18 -38 18 -22 0 -38 6 -44 17 -10 17 -10 17 -11 1 0 -10
-4 -18 -10 -18 -5 0 -10 -7 -10 -15 0 -8 -9 -15 -20 -15 -13 0 -20 7 -20 20 0
11 4 20 9 20 5 0 12 11 15 25 4 14 11 25 16 25 6 0 10 16 10 35 0 19 5 35 10
35 6 0 10 11 10 25 0 14 5 25 10 25 6 0 10 27 10 60 0 47 3 60 15 60 9 0 15
-9 15 -25z m-660 -56 c0 -6 -6 -17 -12 -24 -32 -36 -38 -45 -38 -62 0 -10 -11
-27 -25 -37 -14 -10 -25 -27 -25 -37 0 -15 -8 -19 -40 -19 -44 0 -50 8 -20 30
11 8 20 22 20 31 0 9 11 25 25 35 14 10 25 29 25 41 0 13 5 23 10 23 6 0 10 9
10 20 0 11 7 23 15 26 8 4 15 16 15 28 0 18 3 16 20 -12 11 -18 20 -37 20 -43z
m-440 -35 c0 -19 5 -34 10 -34 6 0 10 -9 10 -20 0 -11 5 -20 10 -20 6 0 10
-11 10 -25 0 -23 -4 -25 -45 -25 -41 0 -45 2 -45 25 0 17 -6 25 -17 25 -17 1
-17 1 0 14 9 7 17 23 17 35 0 11 5 21 10 21 6 0 10 8 10 18 0 10 3 22 6 25 13
13 24 -5 24 -39z m-204 2 c8 -8 14 -17 14 -21 0 -14 -30 -35 -49 -35 -17 0
-21 6 -21 35 0 29 4 35 21 35 11 0 27 -6 35 -14z m672 -24 c2 -24 -1 -32 -12
-32 -12 0 -16 -10 -16 -35 0 -19 -4 -35 -10 -35 -5 0 -10 -11 -10 -25 0 -22
-4 -25 -35 -25 -24 0 -35 5 -35 15 0 8 5 15 10 15 6 0 10 7 10 16 0 9 11 27
25 40 14 13 25 30 25 39 0 8 5 15 10 15 6 0 10 12 10 26 0 37 24 25 28 -14z
m252 -6 c0 -13 -6 -27 -12 -30 -10 -5 -10 -7 0 -12 6 -3 12 -17 12 -30 0 -19
-5 -24 -26 -24 -14 0 -23 4 -19 10 3 6 -1 10 -9 10 -9 0 -16 6 -16 14 0 8 -6
16 -12 19 -9 3 -6 11 10 24 12 11 22 25 22 32 0 6 11 11 25 11 20 0 25 -5 25
-24z"/>
<path d="M2230 740 c0 -5 -7 -10 -15 -10 -8 0 -15 -7 -15 -15 0 -8 5 -15 10
-15 14 0 60 -46 60 -60 0 -5 11 -10 25 -10 24 0 25 3 25 60 l0 60 -45 0 c-25
0 -45 -4 -45 -10z m70 -45 c0 -41 -12 -44 -45 -10 -34 33 -31 45 10 45 33 0
35 -2 35 -35z"/>
<path d="M2397 1943 c-11 -11 -8 -283 3 -283 6 0 10 -123 10 -350 0 -227 -4
-350 -10 -350 -6 0 -10 27 -10 60 0 33 -4 60 -10 60 -6 0 -10 33 -10 80 0 64
-3 80 -15 80 -12 0 -15 -16 -15 -80 0 -64 3 -80 15 -80 12 0 15 -13 15 -60 0
-33 4 -60 10 -60 6 0 10 -30 10 -70 0 -40 4 -70 10 -70 6 0 10 -21 10 -46 0
-27 6 -51 15 -60 8 -9 15 -31 15 -50 0 -19 5 -34 10 -34 6 0 10 -20 10 -45 0
-25 5 -45 10 -45 6 0 10 -22 10 -50 0 -38 4 -50 15 -50 11 0 15 12 15 50 0 37
-4 50 -14 50 -12 0 -14 10 -9 45 4 37 2 45 -11 45 -13 0 -16 11 -16 50 0 28
-4 50 -10 50 -7 0 -10 163 -10 470 0 371 -3 469 -12 468 -10 -2 -13 30 -14
134 0 133 -3 156 -17 141z"/>
<path d="M1619 1808 c-1 -2 -3 -23 -5 -48 -2 -25 -9 -46 -14 -48 -6 -2 -10
-24 -10 -48 0 -32 4 -44 15 -44 11 0 15 12 15 45 0 25 5 45 10 45 6 0 10 23
10 50 0 28 -4 50 -10 50 -5 0 -10 -1 -11 -2z"/>
<path d="M1338 1740 c4 -39 21 -57 23 -22 0 14 2 14 9 -3 8 -18 9 -17 9 8 1
27 -18 57 -36 57 -5 0 -7 -18 -5 -40z"/>
<path d="M630 1691 c0 -52 4 -70 15 -75 11 -4 15 -21 15 -61 0 -42 -3 -55 -15
-55 -9 0 -15 -9 -15 -21 0 -22 -22 -49 -40 -49 -6 0 -9 -4 -5 -9 3 -5 -2 -16
-10 -24 -8 -9 -15 -20 -15 -25 0 -6 -6 -12 -12 -15 -10 -4 -10 -7 0 -18 10
-11 12 -10 12 4 0 9 7 17 15 17 8 0 15 5 15 10 0 6 5 10 10 10 6 0 10 -62 10
-166 0 -128 3 -165 13 -161 9 3 12 51 11 200 -1 160 1 197 12 197 8 0 14 11
14 25 0 14 5 25 10 25 6 0 10 -27 10 -60 0 -33 4 -60 10 -60 6 0 10 -16 10
-35 0 -19 5 -35 11 -35 13 0 39 -25 39 -38 0 -6 6 -13 13 -16 10 -5 10 -7 0
-12 -27 -12 -5 -74 26 -74 7 0 11 -24 11 -60 0 -47 -3 -60 -15 -60 -12 0 -15
-13 -15 -55 0 -30 -4 -55 -10 -55 -6 0 -10 -30 -10 -70 0 -68 -1 -70 -25 -70
-16 0 -25 -6 -25 -15 0 -8 -4 -15 -10 -15 -5 0 -10 -25 -10 -55 0 -30 5 -55
10 -55 6 0 10 -11 10 -25 0 -14 -4 -25 -10 -25 -5 0 -10 -16 -10 -35 0 -24 -5
-35 -15 -35 -10 0 -15 -11 -15 -35 0 -19 -4 -35 -10 -35 -5 0 -10 -11 -10 -25
0 -14 -4 -25 -10 -25 -5 0 -10 -20 -10 -45 0 -25 -4 -45 -10 -45 -5 0 -10 -11
-10 -25 0 -16 -6 -25 -15 -25 -9 0 -15 -9 -15 -25 0 -14 -4 -25 -10 -25 -5 0
-10 -7 -10 -16 0 -8 -7 -22 -15 -31 -8 -8 -13 -19 -9 -24 3 -5 -2 -12 -10 -15
-9 -3 -16 -15 -16 -25 0 -10 -4 -19 -10 -19 -5 0 -10 -11 -10 -24 0 -20 -6
-25 -35 -28 -24 -3 -35 0 -35 9 0 7 -7 13 -15 13 -9 0 -15 -9 -15 -25 0 -23 3
-25 50 -25 38 0 50 4 50 15 0 8 5 15 10 15 6 0 10 7 10 16 0 8 7 22 15 30 8 8
12 21 9 29 -4 9 0 15 10 15 10 0 16 -9 16 -25 0 -14 -4 -25 -9 -25 -5 0 -11
-16 -13 -35 l-4 -35 153 0 153 0 0 25 c0 14 -4 25 -10 25 -19 0 -11 65 10 80
11 8 20 20 20 27 0 7 11 13 25 13 14 0 25 5 25 10 0 6 7 10 15 10 8 0 15 -8
15 -18 0 -22 -34 -52 -60 -52 -16 0 -20 -7 -20 -35 0 -24 5 -35 15 -35 9 0 15
-9 15 -25 0 -23 3 -25 48 -25 l49 0 -5 58 c-3 31 -9 59 -13 60 -5 2 -9 41 -9
87 0 57 -4 85 -12 87 -8 3 -12 24 -12 56 0 37 -3 52 -13 52 -8 0 -13 13 -13
35 0 19 -4 35 -10 35 -5 0 -10 7 -10 15 0 8 -6 14 -12 12 -10 -1 -14 58 -16
266 -1 166 -6 267 -12 267 -6 0 -10 39 -10 95 0 78 3 95 15 95 29 0 14 17 -20
23 -46 7 -85 47 -85 87 0 21 -5 30 -16 30 -13 0 -15 10 -12 60 2 43 -1 60 -9
60 -9 0 -13 19 -13 60 0 33 -4 60 -10 60 -6 0 -10 30 -10 70 0 56 -3 70 -15
70 -12 0 -15 -14 -15 -69z m170 -476 c0 -16 -6 -25 -15 -25 -9 0 -15 9 -15 25
0 16 6 25 15 25 9 0 15 -9 15 -25z m20 -290 l0 -125 -25 0 c-24 0 -25 2 -25
70 0 56 3 70 15 70 12 0 15 13 15 55 0 30 5 55 10 55 6 0 10 -48 10 -125z m0
-160 c0 -11 -12 -15 -45 -15 l-45 0 0 -45 c0 -45 0 -45 35 -45 19 0 35 5 35
10 0 6 5 10 10 10 15 0 13 -137 -2 -144 -10 -5 -10 -7 0 -12 22 -10 13 -34
-13 -34 -14 0 -25 -4 -25 -10 0 -5 -4 -10 -10 -10 -6 0 -10 30 -10 70 0 40 4
70 10 70 6 0 10 -16 10 -35 0 -24 5 -35 15 -35 11 0 15 12 15 45 0 43 -1 45
-30 45 -46 0 -70 31 -70 89 l0 50 53 4 c28 2 55 4 60 5 4 1 7 -5 7 -13z m0
-46 c0 -17 -27 -39 -49 -39 -16 0 -21 6 -21 25 0 22 4 25 35 25 19 0 35 -5 35
-11z m-90 -194 c0 -52 -4 -85 -10 -85 -14 0 -60 -46 -60 -60 0 -5 5 -10 11
-10 14 0 39 25 39 39 0 6 7 11 16 11 18 0 44 23 44 39 0 6 11 11 25 11 14 0
25 5 25 10 0 6 12 10 26 10 16 0 24 -5 22 -12 -3 -7 -9 -13 -15 -13 -16 0 -63
-38 -63 -52 0 -6 -5 -13 -11 -15 -9 -3 -12 -32 -7 -79 1 -9 21 -29 44 -45 24
-16 44 -33 44 -37 0 -12 -42 -46 -57 -47 -7 0 -13 -7 -13 -16 0 -8 -4 -13 -8
-10 -10 6 -12 -9 -13 -71 0 -36 -4 -43 -20 -43 -12 0 -19 7 -19 20 0 11 -7 20
-15 20 -10 0 -15 11 -15 35 0 19 -4 35 -10 35 -5 0 -10 23 -10 50 0 28 -4 50
-10 50 -5 0 -10 25 -10 55 0 42 -3 55 -15 55 -9 0 -15 9 -15 25 0 16 6 25 15
25 9 0 15 9 15 25 0 14 5 25 10 25 6 0 10 16 10 35 0 19 5 35 10 35 6 0 10 16
10 35 0 24 5 35 15 35 12 0 15 -16 15 -85z m140 -115 c0 -29 -4 -40 -15 -40
-8 0 -15 -9 -15 -20 0 -15 7 -20 25 -20 16 0 25 -6 25 -15 0 -8 7 -15 16 -15
10 0 14 -7 12 -22 -4 -25 -28 -37 -28 -14 0 10 -8 16 -21 16 -22 0 -49 22 -49
39 0 6 -4 11 -10 11 -5 0 -10 12 -10 26 0 14 4 23 10 19 6 -4 10 5 10 19 0 14
5 26 10 26 6 0 10 7 10 15 0 8 7 15 15 15 11 0 15 -11 15 -40z m-238 -118 c-3
-24 1 -32 12 -32 12 0 16 -11 16 -50 0 -27 5 -50 10 -50 6 0 10 -16 10 -35 0
-19 5 -35 10 -35 6 0 10 -8 10 -19 0 -17 -8 -18 -80 -17 -69 1 -80 3 -80 18 0
10 6 18 14 18 10 0 12 15 8 70 -4 60 -2 70 12 70 10 0 16 9 16 25 0 14 5 25
10 25 6 0 10 12 10 26 0 16 5 24 13 21 7 -2 11 -16 9 -35z m308 -197 c0 -34
-4 -45 -15 -45 -24 0 -39 43 -26 69 21 38 41 26 41 -24z"/>
<path d="M420 1609 c0 -14 -26 -39 -40 -39 -6 0 -8 -4 -5 -10 3 -5 -1 -10 -9
-10 -9 0 -16 -7 -16 -15 0 -10 11 -15 35 -15 35 0 51 23 23 32 -15 5 13 38 31
38 6 0 11 7 11 15 0 8 -7 15 -15 15 -8 0 -15 -5 -15 -11z"/>
<path d="M470 1607 c0 -8 -11 -20 -25 -27 -25 -14 -33 -30 -15 -30 14 0 60 46
60 60 0 5 -4 10 -10 10 -5 0 -10 -6 -10 -13z"/>
<path d="M750 1405 c0 -14 5 -25 10 -25 6 0 10 -7 10 -16 0 -26 59 -79 73 -65
8 8 6 11 -6 11 -9 0 -17 7 -17 15 0 8 -4 15 -10 15 -5 0 -10 9 -10 20 0 12 -7
20 -16 20 -12 0 -15 7 -12 25 4 17 1 25 -8 25 -8 0 -14 -11 -14 -25z"/>
<path d="M870 1385 c0 -14 5 -25 10 -25 6 0 10 -7 10 -16 0 -14 2 -15 17 -3
15 13 15 14 0 17 -10 2 -17 13 -17 28 0 13 -4 24 -10 24 -5 0 -10 -11 -10 -25z"/>
<path d="M960 1395 c0 -8 -4 -15 -10 -15 -5 0 -10 -9 -10 -20 0 -11 -7 -20
-15 -20 -8 0 -15 -7 -15 -15 0 -18 27 -20 33 -2 2 7 8 8 13 3 5 -5 4 -11 -3
-13 -26 -9 -12 -23 22 -23 42 0 43 4 10 34 -25 23 -34 56 -15 56 6 0 10 -4 10
-10 0 -5 7 -10 15 -10 8 0 15 7 15 16 0 8 -4 12 -10 9 -5 -3 -10 1 -10 9 0 9
-7 16 -15 16 -8 0 -15 -7 -15 -15z"/>
<path d="M842 1278 c3 -7 23 -14 46 -16 36 -3 41 -6 47 -33 4 -16 4 -47 0 -69
-6 -33 -4 -40 9 -40 13 0 16 13 16 76 0 47 -4 73 -10 69 -5 -3 -10 1 -10 9 0
12 -11 16 -51 16 -36 0 -49 -4 -47 -12z"/>
<path d="M1168 1170 c-3 -17 -1 -30 4 -30 4 0 8 8 9 18 0 14 2 14 9 -3 8 -18
9 -18 9 -2 1 10 -5 25 -13 32 -12 12 -14 10 -18 -15z"/>
<path d="M680 1090 c0 -41 -4 -60 -12 -60 -10 0 -12 -21 -10 -80 3 -68 1 -80
-12 -80 -13 0 -16 -12 -16 -60 0 -33 -4 -60 -10 -60 -6 0 -11 61 -12 150 -2
83 -7 150 -11 150 -5 0 -8 -68 -8 -150 2 -129 0 -150 -14 -150 -13 0 -15 -18
-15 -115 0 -70 -4 -115 -10 -115 -5 0 -10 -18 -10 -41 0 -47 23 -51 27 -3 1
16 7 30 13 32 5 2 10 26 10 53 0 27 5 49 10 49 6 0 10 16 10 35 0 19 5 35 10
35 6 0 10 16 10 35 0 24 5 35 15 35 12 0 15 13 15 60 0 33 4 60 10 60 6 0 10
33 10 80 0 47 4 80 10 80 6 0 10 27 10 60 0 33 -4 60 -10 60 -6 0 -10 -27 -10
-60z m-70 -375 c0 -19 -4 -35 -10 -35 -5 0 -10 16 -10 35 0 19 5 35 10 35 6 0
10 -16 10 -35z"/>
<path d="M1812 1114 c-11 -12 -2 -14 55 -12 41 1 53 3 31 5 -21 2 -38 10 -38
16 0 7 -4 6 -10 -3 -7 -11 -12 -12 -17 -4 -6 9 -12 8 -21 -2z"/>
<path d="M519 443 c-1 -4 -2 -21 -3 -38 -1 -18 -6 -29 -13 -27 -9 1 -13 -11
-13 -39 0 -24 -4 -38 -10 -34 -6 4 -10 -5 -10 -19 0 -17 -6 -26 -15 -26 -13 0
-15 -7 -9 -35 5 -28 3 -35 -10 -35 -12 0 -16 -9 -16 -35 0 -19 -4 -35 -10 -35
-5 0 -10 -11 -10 -25 0 -16 6 -25 16 -25 8 0 13 4 10 9 -3 4 1 17 9 27 8 10
15 31 15 47 0 15 5 27 10 27 6 0 10 16 10 35 0 19 4 35 10 35 5 0 12 11 16 25
3 14 10 25 15 25 5 0 9 16 9 35 0 19 5 35 10 35 6 0 10 15 10 34 0 30 -18 62
-21 39z"/>
<path d="M1100 105 c0 -9 -9 -15 -25 -15 -14 0 -25 -4 -25 -10 0 -5 11 -10 25
-10 14 0 25 5 25 10 0 6 20 10 45 10 33 0 45 4 45 15 0 11 -12 15 -45 15 -33
0 -45 -4 -45 -15z"/>
</g>
</svg>
